<svg width="800" height="800" viewBox="0 0 800 800" fill="none" xmlns="http://www.w3.org/2000/svg">
<path d="M156.25 237.5C156.25 189.43 175.346 143.328 209.337 109.337C243.328 75.3459 289.43 56.25 337.5 56.25C385.571 56.25 431.672 75.3459 465.663 109.337C499.654 143.328 518.75 189.43 518.75 237.5C518.75 242.473 516.775 247.242 513.259 250.758C509.742 254.275 504.973 256.25 500 256.25C495.028 256.25 490.258 254.275 486.742 250.758C483.226 247.242 481.25 242.473 481.25 237.5C481.25 199.375 466.105 162.812 439.147 135.853C412.189 108.895 375.625 93.75 337.5 93.75C299.375 93.75 262.812 108.895 235.854 135.853C208.895 162.812 193.75 199.375 193.75 237.5C193.75 242.473 191.775 247.242 188.259 250.758C184.742 254.275 179.973 256.25 175 256.25C170.027 256.25 165.258 254.275 161.742 250.758C158.226 247.242 156.25 242.473 156.25 237.5ZM587.5 381.25C571.237 381.235 555.347 386.125 541.907 395.281C539.126 382.478 533.291 370.537 524.898 360.476C516.506 350.416 505.804 342.534 493.707 337.503C481.61 332.472 468.475 330.441 455.424 331.583C442.372 332.725 429.79 337.007 418.75 344.062V237.5C418.75 215.951 410.19 195.285 394.953 180.048C379.715 164.81 359.049 156.25 337.5 156.25C315.951 156.25 295.285 164.81 280.048 180.048C264.811 195.285 256.25 215.951 256.25 237.5V509.375L232.719 471.562C221.891 452.914 204.098 439.332 183.255 433.802C162.412 428.273 140.226 431.25 121.578 442.078C102.93 452.906 89.3476 470.699 83.8183 491.542C78.2889 512.385 81.2658 534.571 92.094 553.219L183.719 709.469C186.287 713.626 190.376 716.616 195.116 717.803C199.856 718.99 204.872 718.28 209.096 715.824C213.32 713.368 216.419 709.36 217.732 704.653C219.044 699.946 218.468 694.913 216.125 690.625L124.594 534.375C121.721 529.399 119.857 523.906 119.107 518.21C118.357 512.513 118.737 506.725 120.224 501.175C123.228 489.967 130.56 480.411 140.61 474.609C150.659 468.808 162.601 467.236 173.809 470.239C179.359 471.726 184.562 474.292 189.12 477.79C193.678 481.288 197.503 485.649 200.375 490.625C200.462 490.812 200.566 490.99 200.688 491.156L259.063 584.906C261.212 588.374 264.434 591.046 268.239 592.518C272.045 593.989 276.226 594.179 280.149 593.058C284.072 591.938 287.523 589.568 289.977 586.31C292.432 583.051 293.757 579.08 293.75 575V237.5C293.75 225.897 298.36 214.769 306.564 206.564C314.769 198.359 325.897 193.75 337.5 193.75C349.104 193.75 360.232 198.359 368.436 206.564C376.641 214.769 381.25 225.897 381.25 237.5V450C381.25 454.973 383.226 459.742 386.742 463.258C390.258 466.775 395.028 468.75 400 468.75C404.973 468.75 409.742 466.775 413.259 463.258C416.775 459.742 418.75 454.973 418.75 450V412.5C418.75 400.897 423.36 389.769 431.564 381.564C439.769 373.359 450.897 368.75 462.5 368.75C474.104 368.75 485.232 373.359 493.436 381.564C501.641 389.769 506.25 400.897 506.25 412.5V475C506.25 479.973 508.226 484.742 511.742 488.258C515.258 491.775 520.028 493.75 525 493.75C529.973 493.75 534.742 491.775 538.259 488.258C541.775 484.742 543.75 479.973 543.75 475V462.5C543.75 450.897 548.36 439.769 556.564 431.564C564.769 423.359 575.897 418.75 587.5 418.75C599.104 418.75 610.232 423.359 618.436 431.564C626.641 439.769 631.25 450.897 631.25 462.5V575C631.25 644.156 608.438 691.188 608.219 691.625C606.046 696.059 605.709 701.172 607.283 705.853C608.857 710.534 612.214 714.405 616.625 716.625C619.206 717.995 622.079 718.723 625 718.75C628.491 718.757 631.914 717.789 634.884 715.956C637.854 714.123 640.254 711.498 641.813 708.375C642.907 706.187 668.782 653.531 668.782 575V462.5C668.782 451.827 666.679 441.26 662.594 431.4C658.509 421.54 652.521 412.582 644.973 405.037C637.425 397.491 628.464 391.507 618.603 387.426C608.742 383.344 598.173 381.246 587.5 381.25Z" fill="white"/>
</svg>
